<?xml version="1.0" encoding="UTF-8" standalone="no"?>
<!DOCTYPE svg PUBLIC "-//W3C//DTD SVG 20010904//EN" "http://www.w3.org/TR/2001/REC-SVG-20010904/DTD/svg10.dtd">
<svg version="1.0" xmlns="http://www.w3.org/2000/svg" width="271.000000pt" height="95.000000pt" viewBox="0 0 271.000000 95.000000" preserveAspectRatio="xMidYMid meet">
<metadata>
Created by potrace 1.10, written by Peter Selinger 2001-2011
</metadata>
<g transform="translate(0.000000,95.000000) scale(0.100000,-0.100000)" fill="#000000" stroke="none">
<path d="M109 813 c-1 -5 -1 -116 0 -248 1 -132 -2 -245 -6 -251 -4 -6 -15 -14 -23 -17 -28 -10 224 -7 265 4 57 15 68 19 63 24 -2 2 -28 -2 -58 -10 -62 -17 -245 -21 -235 -5 3 5 6 104 5 220 0 196 2 211 18 206 56 -16 171 -27 201 -19 l35 9 -24 22 c-13 12 -47 28 -76 37 -29 8 -56 20 -59 25 -7 12 -104 14 -106 3z m121 -32 c15 -11 36 -18 46 -15 11 2 32 -4 48 -15 l30 -20 -27 -6 c-26 -7 -150 10 -194 26 -22 8 -31 38 -15 53 12 13 84 -1 112 -23z"/>
<path d="M270 746 c0 -2 7 -7 16 -10 8 -3 12 -2 9 4 -6 10 -25 14 -25 6z"/>
<path d="M1860 705 c0 -8 7 -15 15 -15 8 0 15 -7 15 -15 0 -8 7 -15 15 -15 8 0 15 -7 15 -15 0 -10 10 -15 30 -15 20 0 30 5 30 15 0 8 -7 15 -15 15 -10 0 -15 10 -15 30 0 29 -2 30 -45 30 -33 0 -45 -4 -45 -15z"/>
<path d="M206 648 c-9 -80 -19 -294 -13 -288 6 6 29 332 23 337 -2 2 -6 -20 -10 -49z"/>
<path d="M284 670 c3 -19 10 -69 16 -110 11 -77 59 -234 60 -193 0 12 -9 44 -19 71 -11 26 -26 94 -34 151 -9 57 -19 106 -23 110 -4 3 -4 -10 0 -29z"/>
<path d="M480 540 l0 -150 105 0 c87 0 105 3 105 15 0 12 -15 15 -75 15 l-75 0 0 135 0 135 -30 0 -30 0 0 -150z"/>
<path d="M1110 675 c0 -8 -7 -15 -15 -15 -11 0 -15 -12 -15 -45 0 -33 4 -45 15 -45 8 0 15 -7 15 -15 0 -10 10 -15 30 -15 20 0 30 -5 30 -15 0 -10 10 -15 30 -15 29 0 30 -2 30 -45 l0 -45 -45 0 c-43 0 -45 1 -45 30 0 27 -3 30 -30 30 -27 0 -30 -3 -30 -30 0 -20 5 -30 15 -30 8 0 15 -7 15 -15 0 -12 15 -15 75 -15 60 0 75 3 75 15 0 8 7 15 15 15 11 0 15 12 15 45 0 33 -4 45 -15 45 -8 0 -15 7 -15 15 0 10 -10 15 -30 15 -20 0 -30 5 -30 15 0 10 -10 15 -30 15 -29 0 -30 2 -30 45 l0 45 45 0 c43 0 45 -1 45 -30 0 -27 3 -30 30 -30 27 0 30 3 30 30 0 20 -5 30 -15 30 -8 0 -15 7 -15 15 0 12 -15 15 -75 15 -60 0 -75 -3 -75 -15z"/>
<path d="M1590 540 l0 -150 30 0 30 0 0 150 0 150 -30 0 -30 0 0 -150z"/>
<path d="M1710 660 c0 -27 3 -30 30 -30 27 0 30 3 30 30 0 27 -3 30 -30 30 -27 0 -30 -3 -30 -30z"/>
<path d="M750 585 c0 -8 -7 -15 -15 -15 -8 0 -15 -7 -15 -15 0 -10 10 -15 30 -15 20 0 30 5 30 15 0 10 10 15 30 15 20 0 30 -5 30 -15 0 -10 -10 -15 -30 -15 -20 0 -30 -5 -30 -15 0 -8 -7 -15 -15 -15 -8 0 -15 -7 -15 -15 0 -8 -7 -15 -15 -15 -10 0 -15 -10 -15 -30 0 -20 5 -30 15 -30 8 0 15 -7 15 -15 0 -12 15 -15 75 -15 l75 0 0 90 c0 73 -3 90 -15 90 -8 0 -15 7 -15 15 0 12 -13 15 -60 15 -47 0 -60 -3 -60 -15z m117 -67 c-3 -8 -6 -5 -6 6 -1 11 2 17 5 13 3 -3 4 -12 1 -19z m-27 -53 c0 -43 -1 -45 -30 -45 -27 0 -30 3 -30 30 0 20 5 30 15 30 8 0 15 7 15 15 0 8 7 15 15 15 11 0 15 -12 15 -45z"/>
<path d="M1380 585 c0 -8 -7 -15 -15 -15 -8 0 -15 -7 -15 -15 0 -10 10 -15 30 -15 20 0 30 5 30 15 0 10 10 15 30 15 20 0 30 -5 30 -15 0 -10 -10 -15 -30 -15 -20 0 -30 -5 -30 -15 0 -8 -7 -15 -15 -15 -8 0 -15 -7 -15 -15 0 -8 -7 -15 -15 -15 -10 0 -15 -10 -15 -30 0 -20 5 -30 15 -30 8 0 15 -7 15 -15 0 -12 15 -15 75 -15 l75 0 0 90 c0 73 -3 90 -15 90 -8 0 -15 7 -15 15 0 12 -13 15 -60 15 -47 0 -60 -3 -60 -15z m117 -67 c-3 -8 -6 -5 -6 6 -1 11 2 17 5 13 3 -3 4 -12 1 -19z m-27 -53 c0 -43 -1 -45 -30 -45 -27 0 -30 3 -30 30 0 20 5 30 15 30 8 0 15 7 15 15 0 8 7 15 15 15 11 0 15 -12 15 -45z"/>
<path d="M1710 495 l0 -105 30 0 30 0 0 105 0 105 -30 0 -30 0 0 -105z"/>
<path d="M1860 585 c0 -8 -7 -15 -15 -15 -12 0 -15 -15 -15 -75 0 -60 3 -75 15 -75 8 0 15 -7 15 -15 0 -12 13 -15 60 -15 47 0 60 3 60 15 0 8 7 15 15 15 8 0 15 7 15 15 0 10 -10 15 -30 15 -20 0 -30 -5 -30 -15 0 -10 -10 -15 -30 -15 -29 0 -30 2 -30 45 l0 45 60 0 c60 0 60 0 60 30 0 20 -5 30 -15 30 -8 0 -15 7 -15 15 0 12 -13 15 -60 15 -47 0 -60 -3 -60 -15z m90 -30 c0 -10 -10 -15 -30 -15 -20 0 -30 5 -30 15 0 10 10 15 30 15 20 0 30 -5 30 -15z m-83 -37 c-3 -8 -6 -5 -6 6 -1 11 2 17 5 13 3 -3 4 -12 1 -19z"/>
<path d="M2070 495 l0 -105 30 0 30 0 0 75 c0 60 3 75 15 75 8 0 15 7 15 15 0 8 7 15 15 15 8 0 15 7 15 15 0 12 -13 15 -60 15 l-60 0 0 -105z m50 66 c0 -6 -4 -13 -10 -16 -5 -3 -10 1 -10 9 0 9 5 16 10 16 6 0 10 -4 10 -9z"/>
<path d="M2250 585 c0 -8 -7 -15 -15 -15 -12 0 -15 -15 -15 -75 0 -60 3 -75 15 -75 8 0 15 -7 15 -15 0 -12 13 -15 60 -15 47 0 60 3 60 15 0 8 7 15 15 15 8 0 15 7 15 15 0 10 -10 15 -30 15 -20 0 -30 -5 -30 -15 0 -10 -10 -15 -30 -15 -29 0 -30 2 -30 45 l0 45 60 0 c60 0 60 0 60 30 0 20 -5 30 -15 30 -8 0 -15 7 -15 15 0 12 -13 15 -60 15 -47 0 -60 -3 -60 -15z m90 -30 c0 -10 -10 -15 -30 -15 -20 0 -30 5 -30 15 0 10 10 15 30 15 20 0 30 -5 30 -15z m-83 -37 c-3 -8 -6 -5 -6 6 -1 11 2 17 5 13 3 -3 4 -12 1 -19z"/>
<path d="M238 513 c12 -2 30 -2 40 0 9 3 -1 5 -23 4 -22 0 -30 -2 -17 -4z"/>
<path d="M148 503 c7 -3 16 -2 19 1 4 3 -2 6 -13 5 -11 0 -14 -3 -6 -6z"/>
</g>
</svg>